<mxfile host="app.diagrams.net" modified="2024-04-12T06:37:27.526Z" agent="Mozilla/5.0 (Windows NT 10.0; Win64; x64) AppleWebKit/537.36 (KHTML, like Gecko) Chrome/123.0.0.0 Safari/537.36" etag="x8-lfmcMbCKyQtOvixYi" version="24.2.3" type="github">
  <diagram name="Страница — 1" id="zYJull6VpNai9G3tL-5W">
    <mxGraphModel dx="1509" dy="821" grid="1" gridSize="10" guides="1" tooltips="1" connect="1" arrows="1" fold="1" page="1" pageScale="1" pageWidth="827" pageHeight="1169" math="0" shadow="0">
      <root>
        <mxCell id="0" />
        <mxCell id="1" parent="0" />
        <mxCell id="2JbDRTfgbQ4UnraGV1tb-5" style="edgeStyle=orthogonalEdgeStyle;rounded=0;orthogonalLoop=1;jettySize=auto;html=1;entryX=0.5;entryY=0;entryDx=0;entryDy=0;" edge="1" parent="1" source="2JbDRTfgbQ4UnraGV1tb-1" target="2JbDRTfgbQ4UnraGV1tb-2">
          <mxGeometry relative="1" as="geometry" />
        </mxCell>
        <mxCell id="2JbDRTfgbQ4UnraGV1tb-6" style="edgeStyle=orthogonalEdgeStyle;rounded=0;orthogonalLoop=1;jettySize=auto;html=1;" edge="1" parent="1" source="2JbDRTfgbQ4UnraGV1tb-1" target="2JbDRTfgbQ4UnraGV1tb-3">
          <mxGeometry relative="1" as="geometry" />
        </mxCell>
        <mxCell id="2JbDRTfgbQ4UnraGV1tb-7" style="edgeStyle=orthogonalEdgeStyle;rounded=0;orthogonalLoop=1;jettySize=auto;html=1;entryX=0.5;entryY=0;entryDx=0;entryDy=0;" edge="1" parent="1" source="2JbDRTfgbQ4UnraGV1tb-1" target="2JbDRTfgbQ4UnraGV1tb-4">
          <mxGeometry relative="1" as="geometry" />
        </mxCell>
        <mxCell id="2JbDRTfgbQ4UnraGV1tb-1" value="Базовые Правила" style="shape=hexagon;perimeter=hexagonPerimeter2;whiteSpace=wrap;html=1;fixedSize=1;" vertex="1" parent="1">
          <mxGeometry x="840" y="50" width="120" height="80" as="geometry" />
        </mxCell>
        <mxCell id="2JbDRTfgbQ4UnraGV1tb-13" style="edgeStyle=orthogonalEdgeStyle;rounded=0;orthogonalLoop=1;jettySize=auto;html=1;entryX=1;entryY=0.5;entryDx=0;entryDy=0;" edge="1" parent="1" source="2JbDRTfgbQ4UnraGV1tb-2" target="2JbDRTfgbQ4UnraGV1tb-8">
          <mxGeometry relative="1" as="geometry" />
        </mxCell>
        <mxCell id="2JbDRTfgbQ4UnraGV1tb-14" style="edgeStyle=orthogonalEdgeStyle;rounded=0;orthogonalLoop=1;jettySize=auto;html=1;entryX=1;entryY=0.5;entryDx=0;entryDy=0;" edge="1" parent="1" source="2JbDRTfgbQ4UnraGV1tb-2" target="2JbDRTfgbQ4UnraGV1tb-9">
          <mxGeometry relative="1" as="geometry" />
        </mxCell>
        <mxCell id="2JbDRTfgbQ4UnraGV1tb-15" style="edgeStyle=orthogonalEdgeStyle;rounded=0;orthogonalLoop=1;jettySize=auto;html=1;entryX=1;entryY=0.5;entryDx=0;entryDy=0;" edge="1" parent="1" source="2JbDRTfgbQ4UnraGV1tb-2" target="2JbDRTfgbQ4UnraGV1tb-10">
          <mxGeometry relative="1" as="geometry" />
        </mxCell>
        <mxCell id="2JbDRTfgbQ4UnraGV1tb-2" value="Основные Механики" style="ellipse;whiteSpace=wrap;html=1;aspect=fixed;" vertex="1" parent="1">
          <mxGeometry x="620" y="210" width="80" height="80" as="geometry" />
        </mxCell>
        <mxCell id="2JbDRTfgbQ4UnraGV1tb-40" style="edgeStyle=orthogonalEdgeStyle;rounded=0;orthogonalLoop=1;jettySize=auto;html=1;entryX=0;entryY=0.5;entryDx=0;entryDy=0;" edge="1" parent="1" source="2JbDRTfgbQ4UnraGV1tb-3" target="2JbDRTfgbQ4UnraGV1tb-36">
          <mxGeometry relative="1" as="geometry">
            <Array as="points">
              <mxPoint x="780" y="250" />
              <mxPoint x="780" y="380" />
            </Array>
          </mxGeometry>
        </mxCell>
        <mxCell id="2JbDRTfgbQ4UnraGV1tb-41" style="edgeStyle=orthogonalEdgeStyle;rounded=0;orthogonalLoop=1;jettySize=auto;html=1;entryX=0;entryY=0.5;entryDx=0;entryDy=0;" edge="1" parent="1" source="2JbDRTfgbQ4UnraGV1tb-3" target="2JbDRTfgbQ4UnraGV1tb-38">
          <mxGeometry relative="1" as="geometry">
            <Array as="points">
              <mxPoint x="780" y="250" />
              <mxPoint x="780" y="460" />
            </Array>
          </mxGeometry>
        </mxCell>
        <mxCell id="2JbDRTfgbQ4UnraGV1tb-42" style="edgeStyle=orthogonalEdgeStyle;rounded=0;orthogonalLoop=1;jettySize=auto;html=1;entryX=0;entryY=0.5;entryDx=0;entryDy=0;" edge="1" parent="1" source="2JbDRTfgbQ4UnraGV1tb-3" target="2JbDRTfgbQ4UnraGV1tb-39">
          <mxGeometry relative="1" as="geometry">
            <Array as="points">
              <mxPoint x="780" y="250" />
              <mxPoint x="780" y="540" />
            </Array>
          </mxGeometry>
        </mxCell>
        <mxCell id="2JbDRTfgbQ4UnraGV1tb-3" value="Известность" style="ellipse;whiteSpace=wrap;html=1;aspect=fixed;" vertex="1" parent="1">
          <mxGeometry x="860" y="210" width="80" height="80" as="geometry" />
        </mxCell>
        <mxCell id="2JbDRTfgbQ4UnraGV1tb-31" style="edgeStyle=orthogonalEdgeStyle;rounded=0;orthogonalLoop=1;jettySize=auto;html=1;entryX=0;entryY=0.5;entryDx=0;entryDy=0;" edge="1" parent="1" source="2JbDRTfgbQ4UnraGV1tb-4" target="2JbDRTfgbQ4UnraGV1tb-27">
          <mxGeometry relative="1" as="geometry" />
        </mxCell>
        <mxCell id="2JbDRTfgbQ4UnraGV1tb-32" style="edgeStyle=orthogonalEdgeStyle;rounded=0;orthogonalLoop=1;jettySize=auto;html=1;entryX=0;entryY=0.5;entryDx=0;entryDy=0;" edge="1" parent="1" source="2JbDRTfgbQ4UnraGV1tb-4" target="2JbDRTfgbQ4UnraGV1tb-28">
          <mxGeometry relative="1" as="geometry" />
        </mxCell>
        <mxCell id="2JbDRTfgbQ4UnraGV1tb-33" style="edgeStyle=orthogonalEdgeStyle;rounded=0;orthogonalLoop=1;jettySize=auto;html=1;entryX=0;entryY=0.5;entryDx=0;entryDy=0;" edge="1" parent="1" source="2JbDRTfgbQ4UnraGV1tb-4" target="2JbDRTfgbQ4UnraGV1tb-29">
          <mxGeometry relative="1" as="geometry" />
        </mxCell>
        <mxCell id="2JbDRTfgbQ4UnraGV1tb-34" style="edgeStyle=orthogonalEdgeStyle;rounded=0;orthogonalLoop=1;jettySize=auto;html=1;entryX=0;entryY=0.5;entryDx=0;entryDy=0;" edge="1" parent="1" source="2JbDRTfgbQ4UnraGV1tb-4" target="2JbDRTfgbQ4UnraGV1tb-30">
          <mxGeometry relative="1" as="geometry" />
        </mxCell>
        <mxCell id="2JbDRTfgbQ4UnraGV1tb-4" value="Крафт" style="ellipse;whiteSpace=wrap;html=1;aspect=fixed;" vertex="1" parent="1">
          <mxGeometry x="1050" y="210" width="80" height="80" as="geometry" />
        </mxCell>
        <mxCell id="2JbDRTfgbQ4UnraGV1tb-18" value="" style="group" vertex="1" connectable="0" parent="1">
          <mxGeometry x="420" y="330" width="120" height="280" as="geometry" />
        </mxCell>
        <mxCell id="2JbDRTfgbQ4UnraGV1tb-16" style="edgeStyle=orthogonalEdgeStyle;rounded=0;orthogonalLoop=1;jettySize=auto;html=1;entryX=1;entryY=0.5;entryDx=0;entryDy=0;" edge="1" parent="2JbDRTfgbQ4UnraGV1tb-18" source="2JbDRTfgbQ4UnraGV1tb-2" target="2JbDRTfgbQ4UnraGV1tb-12">
          <mxGeometry relative="1" as="geometry" />
        </mxCell>
        <mxCell id="2JbDRTfgbQ4UnraGV1tb-17" value="" style="group" vertex="1" connectable="0" parent="2JbDRTfgbQ4UnraGV1tb-18">
          <mxGeometry width="120" height="280" as="geometry" />
        </mxCell>
        <mxCell id="2JbDRTfgbQ4UnraGV1tb-8" value="Проверки" style="rounded=1;whiteSpace=wrap;html=1;" vertex="1" parent="2JbDRTfgbQ4UnraGV1tb-17">
          <mxGeometry width="120" height="40" as="geometry" />
        </mxCell>
        <mxCell id="2JbDRTfgbQ4UnraGV1tb-9" value="Пределы" style="rounded=1;whiteSpace=wrap;html=1;" vertex="1" parent="2JbDRTfgbQ4UnraGV1tb-17">
          <mxGeometry y="80" width="120" height="40" as="geometry" />
        </mxCell>
        <mxCell id="2JbDRTfgbQ4UnraGV1tb-10" value="Грань" style="rounded=1;whiteSpace=wrap;html=1;" vertex="1" parent="2JbDRTfgbQ4UnraGV1tb-17">
          <mxGeometry y="160" width="120" height="40" as="geometry" />
        </mxCell>
        <mxCell id="2JbDRTfgbQ4UnraGV1tb-12" value="Счетчики состояний" style="rounded=1;whiteSpace=wrap;html=1;" vertex="1" parent="2JbDRTfgbQ4UnraGV1tb-17">
          <mxGeometry y="240" width="120" height="40" as="geometry" />
        </mxCell>
        <mxCell id="2JbDRTfgbQ4UnraGV1tb-27" value="Создание" style="rounded=1;whiteSpace=wrap;html=1;" vertex="1" parent="1">
          <mxGeometry x="1220" y="320" width="110" height="40" as="geometry" />
        </mxCell>
        <mxCell id="2JbDRTfgbQ4UnraGV1tb-28" value="Ремонт" style="rounded=1;whiteSpace=wrap;html=1;" vertex="1" parent="1">
          <mxGeometry x="1221" y="400" width="110" height="40" as="geometry" />
        </mxCell>
        <mxCell id="2JbDRTfgbQ4UnraGV1tb-29" value="Фальсификация" style="rounded=1;whiteSpace=wrap;html=1;" vertex="1" parent="1">
          <mxGeometry x="1221" y="480" width="110" height="40" as="geometry" />
        </mxCell>
        <mxCell id="2JbDRTfgbQ4UnraGV1tb-30" value="Смена владельца" style="rounded=1;whiteSpace=wrap;html=1;" vertex="1" parent="1">
          <mxGeometry x="1220" y="560" width="110" height="40" as="geometry" />
        </mxCell>
        <mxCell id="2JbDRTfgbQ4UnraGV1tb-36" value="Уважение улиц" style="rounded=1;whiteSpace=wrap;html=1;" vertex="1" parent="1">
          <mxGeometry x="820" y="360" width="120" height="40" as="geometry" />
        </mxCell>
        <mxCell id="2JbDRTfgbQ4UnraGV1tb-38" value="Огласка" style="rounded=1;whiteSpace=wrap;html=1;" vertex="1" parent="1">
          <mxGeometry x="820" y="440" width="120" height="40" as="geometry" />
        </mxCell>
        <mxCell id="2JbDRTfgbQ4UnraGV1tb-39" value="Информированность" style="rounded=1;whiteSpace=wrap;html=1;" vertex="1" parent="1">
          <mxGeometry x="820" y="520" width="120" height="40" as="geometry" />
        </mxCell>
      </root>
    </mxGraphModel>
  </diagram>
</mxfile>
